<svg width="12" height="12" viewBox="0 0 12 12" fill="none" xmlns="http://www.w3.org/2000/svg">
<g id="Calendar" clip-path="url(#clip0_1151_7598)">
<g id="Group">
<path id="Vector" d="M3 0.375C3 0.275544 2.96049 0.180161 2.89016 0.109835C2.81984 0.0395088 2.72446 0 2.625 0C2.52554 0 2.43016 0.0395088 2.35984 0.109835C2.28951 0.180161 2.25 0.275544 2.25 0.375V0.75H1.5C1.10218 0.75 0.720644 0.908035 0.43934 1.18934C0.158035 1.47064 0 1.85218 0 2.25L0 3H12V2.25C12 1.85218 11.842 1.47064 11.5607 1.18934C11.2794 0.908035 10.8978 0.75 10.5 0.75H9.75V0.375C9.75 0.275544 9.71049 0.180161 9.64017 0.109835C9.56984 0.0395088 9.47446 0 9.375 0C9.27554 0 9.18016 0.0395088 9.10983 0.109835C9.03951 0.180161 9 0.275544 9 0.375V0.75H3V0.375ZM7.0515 7.6845C7.52025 7.6845 7.9395 7.3215 7.9395 6.7995C7.9395 6.1755 7.54425 5.877 7.0695 5.877C6.63 5.877 6.1935 6.16725 6.1935 6.7845C6.1935 7.39725 6.60075 7.6845 7.0515 7.6845Z" fill="#F6A235"/>
<path id="Vector_2" d="M12 10.5V3.75H0V10.5C0 10.8978 0.158035 11.2794 0.43934 11.5607C0.720644 11.842 1.10218 12 1.5 12H10.5C10.8978 12 11.2794 11.842 11.5607 11.5607C11.842 11.2794 12 10.8978 12 10.5Z" fill="#F6A235"/>
</g>
</g>
<defs>
<clipPath id="clip0_1151_7598">
<rect width="12" height="12" fill="white"/>
</clipPath>
</defs>
</svg>
