<svg width="35" height="36" viewBox="0 0 35 36" fill="none" xmlns="http://www.w3.org/2000/svg">
<g id="Dribbble">
<path id="Bg" fill-rule="evenodd" clip-rule="evenodd" d="M0 18.3335C0 8.66851 7.83502 0.833496 17.5 0.833496C27.165 0.833496 35 8.66851 35 18.3335C35 27.9985 27.165 35.8335 17.5 35.8335C7.83502 35.8335 0 27.9985 0 18.3335Z" fill="#F6A235"/>
<path id="Path" fill-rule="evenodd" clip-rule="evenodd" d="M26.8333 18.3206C26.8333 18.9518 26.7691 19.5822 26.6429 20.1966C26.5198 20.7964 26.3375 21.3853 26.0987 21.9482C25.8654 22.5012 25.576 23.0341 25.2378 23.531C24.9047 24.0248 24.5209 24.4881 24.0993 24.9104C23.6768 25.3309 23.212 25.7136 22.7184 26.0482C22.2198 26.384 21.6861 26.673 21.1328 26.9074C20.5691 27.145 19.9788 27.327 19.3795 27.4498C18.7643 27.5764 18.1317 27.641 17.4996 27.641C16.867 27.641 16.2344 27.5764 15.6201 27.4498C15.0199 27.327 14.4297 27.145 13.8663 26.9074C13.3131 26.673 12.7789 26.384 12.2803 26.0482C11.7867 25.7137 11.3219 25.3309 10.9003 24.9104C10.4783 24.4881 10.0945 24.0248 9.76091 23.531C9.42456 23.0341 9.13469 22.5012 8.90045 21.9482C8.6616 21.3853 8.47887 20.7964 8.35536 20.1966C8.23049 19.5822 8.16667 18.9518 8.16667 18.3206C8.16667 17.689 8.23046 17.0573 8.35539 16.4442C8.47891 15.8444 8.66164 15.2546 8.90048 14.6926C9.13472 14.1392 9.4246 13.6059 9.76095 13.1089C10.0946 12.6146 10.4783 12.1522 10.9003 11.7294C11.3219 11.3089 11.7868 10.9271 12.2804 10.5931C12.7789 10.2558 13.3131 9.9669 13.8664 9.73205C14.4297 9.49399 15.0199 9.31152 15.6201 9.18957C16.2345 9.06397 16.867 9.00024 17.4996 9.00024C18.1317 9.00024 18.7643 9.06397 19.3796 9.18957C19.9789 9.31155 20.5691 9.49402 21.1329 9.73205C21.6861 9.96686 22.2198 10.2558 22.7184 10.5931C23.212 10.9271 23.6769 11.3089 24.0993 11.7294C24.5209 12.1522 24.9047 12.6146 25.2378 13.1089C25.576 13.6059 25.8654 14.1392 26.0987 14.6926C26.3375 15.2546 26.5198 15.8444 26.6429 16.4442C26.7691 17.0573 26.8333 17.689 26.8333 18.3206ZM14.0987 11.1214C11.876 12.1696 10.2171 14.2147 9.69976 16.6795C9.90989 16.6814 13.2314 16.7232 17.0584 15.7079C15.6788 13.2604 14.2049 11.263 14.0987 11.1214ZM17.7187 16.9335C13.6147 18.1604 9.67653 18.0721 9.53526 18.0667C9.53296 18.1522 9.52887 18.235 9.52887 18.3206C9.52887 20.3653 10.3014 22.2294 11.5711 23.6389C11.5684 23.6348 13.7496 19.7706 18.051 18.3816C18.1549 18.347 18.2607 18.3161 18.3655 18.286C18.1654 17.8337 17.9471 17.3804 17.7187 16.9335ZM22.7635 12.347C21.3602 11.1114 19.5176 10.3619 17.4996 10.3619C16.8519 10.3619 16.2234 10.4402 15.6214 10.5849C15.7408 10.7451 17.238 12.7284 18.6011 15.2278C21.6086 14.1019 22.7439 12.3761 22.7635 12.347ZM18.9088 19.6049C18.891 19.6108 18.8733 19.6159 18.8559 19.6222C14.1531 21.2593 12.6173 24.5586 12.6007 24.5946C13.9539 25.6454 15.6511 26.2793 17.4996 26.2793C18.6034 26.2793 19.6548 26.0549 20.6114 25.6486C20.4934 24.9532 20.0304 22.5157 18.9088 19.6049ZM21.9536 24.9213C23.7434 23.7154 25.0144 21.8003 25.369 19.5821C25.2049 19.5293 22.9749 18.8244 20.4022 19.2363C21.4477 22.1052 21.8725 24.4417 21.9536 24.9213ZM19.2146 16.4138C19.3996 16.7933 19.5788 17.1796 19.7442 17.5679C19.803 17.7072 19.8604 17.8437 19.9165 17.9802C22.6546 17.6361 25.3522 18.215 25.4675 18.2387C25.4493 16.3519 24.7734 14.6202 23.655 13.2645C23.64 13.2858 22.3616 15.1304 19.2146 16.4138Z" fill="white"/>
</g>
</svg>
