<svg width="50" height="50" viewBox="0 0 50 50" fill="none" xmlns="http://www.w3.org/2000/svg">
<path d="M25 49.9999C23.7754 49.9999 22.9081 48.8775 22.0916 47.908C21.6325 47.3468 21.0713 46.5816 20.714 46.5304C20.3567 46.4282 19.4894 46.9386 18.8263 47.2955C17.7039 47.9077 16.5305 48.571 15.4079 48.1119C14.2855 47.6528 13.9285 46.326 13.5712 45.1018C13.3673 44.4384 13.1121 43.469 12.806 43.2651C12.5 43.0611 11.5305 43.1629 10.8162 43.2651C9.54071 43.4181 8.16306 43.5711 7.34701 42.7038C6.4797 41.8365 6.63274 40.5101 6.78576 39.2346C6.8879 38.5203 6.98969 37.5509 6.78576 37.2448C6.58183 36.9387 5.66331 36.6836 4.94902 36.4796C3.6735 36.1223 2.39799 35.7654 1.93889 34.6429C1.47979 33.5204 2.14282 32.3471 2.75531 31.2245C3.06102 30.5102 3.57136 29.643 3.46922 29.2856C3.41833 28.9283 2.65281 28.3162 2.09157 27.908C1.12245 27.0919 0 26.2246 0 25C0 23.7754 1.12245 22.9081 2.09194 22.0916C2.65318 21.6325 3.41838 21.0713 3.46958 20.714C3.57137 20.357 3.06102 19.4897 2.70407 18.8263C2.09193 17.7039 1.42855 16.5305 1.88765 15.4079C2.34676 14.2855 3.67356 13.9285 4.89778 13.5712C5.56116 13.3673 6.53062 13.1121 6.73452 12.806C6.93842 12.5 6.83666 11.5305 6.73452 10.8162C6.58149 9.54071 6.42845 8.16306 7.29577 7.34701C8.16307 6.4797 9.48947 6.63274 10.765 6.78576C11.4793 6.8879 12.4487 6.98969 12.7548 6.78576C13.0609 6.58183 13.316 5.66331 13.52 4.94902C13.8773 3.6735 14.2342 2.39799 15.3567 1.93889C16.4792 1.47979 17.6525 2.14282 18.7751 2.75531C19.4897 3.06102 20.357 3.57136 20.7143 3.46922C21.0716 3.41833 21.6838 2.65281 22.092 2.09157C22.908 1.12245 23.7754 0 25 0C26.2245 0 27.0919 1.12245 27.9083 2.09194C28.3674 2.65318 28.9286 3.41838 29.286 3.46958C29.6429 3.57137 30.5103 3.06102 31.1736 2.70407C32.2961 2.09193 33.4695 1.42855 34.592 1.88765C35.7145 2.34676 36.0714 3.67356 36.4288 4.89778C36.6327 5.56116 36.8879 6.53062 37.1939 6.73452C37.5 6.93842 38.4694 6.83666 39.1837 6.73452C40.4592 6.58149 41.8369 6.42845 42.6529 7.29577C43.5203 8.16307 43.3672 9.48947 43.2142 10.765C43.1121 11.4793 43.0103 12.4487 43.2142 12.7548C43.4181 13.0609 44.3366 13.316 45.0509 13.52C46.3265 13.8773 47.602 14.2342 48.0611 15.3567C48.5202 16.4792 47.8571 17.6525 47.2447 18.7751C46.8873 19.3872 46.4282 20.2545 46.4795 20.6628C46.5304 21.0201 47.2959 21.6322 47.8571 22.0404C48.8266 22.8056 49.9491 23.7241 49.9491 24.9488C49.9491 26.1734 48.8266 27.0407 47.8571 27.8571C47.2959 28.3162 46.5307 28.8774 46.4795 29.2348C46.4286 29.5921 46.8877 30.4593 47.2447 31.1224C47.8568 32.2449 48.5202 33.4183 48.0611 34.5408C47.602 35.6633 46.2752 36.0202 45.0509 36.3776C44.3876 36.5815 43.4181 36.8367 43.2142 37.1427C43.0103 37.4488 43.1121 38.4182 43.2142 39.1325C43.3672 40.408 43.5203 41.7857 42.6529 42.6017C41.7856 43.4691 40.4592 43.316 39.1837 43.163C38.4695 43.0609 37.5 42.9591 37.1939 43.163C36.8878 43.3669 36.6327 44.2854 36.4288 44.9997C36.0714 46.2753 35.7145 47.5508 34.592 48.0099C33.4696 48.469 32.2962 47.8059 31.1736 47.1934C30.5615 46.8361 29.6942 46.377 29.286 46.4283C28.9286 46.4792 28.3165 47.2447 27.9083 47.8059C27.0919 48.8775 26.2246 50 25 50L25 49.9999ZM20.6631 44.7448C20.8161 44.7448 20.9691 44.7448 21.0713 44.7957C22.0408 44.9996 22.8059 45.9182 23.5202 46.8364C23.9793 47.3976 24.6426 48.2649 24.9996 48.2649C25.3569 48.2649 26.0712 47.3976 26.479 46.8364C27.1933 45.9182 27.9076 44.9996 28.9279 44.7957C29.9482 44.5918 31.0198 45.153 32.0402 45.7652C32.6014 46.0713 33.5709 46.6325 33.8769 46.4795C34.183 46.3264 34.489 45.3061 34.6933 44.5918C34.9994 43.4693 35.3567 42.3468 36.1727 41.7856C37.04 41.2243 38.2134 41.3265 39.3871 41.4795C40.0505 41.5304 41.173 41.6834 41.4278 41.4286C41.6829 41.1734 41.5299 40.051 41.4787 39.388C41.3256 38.2146 41.2235 37.0408 41.7847 36.1736C42.346 35.3063 43.5193 35.0002 44.591 34.6942C45.3052 34.4902 46.3256 34.1838 46.4786 33.8777C46.5808 33.5717 46.0704 32.6022 45.7643 32.041C45.2031 31.0207 44.591 29.9491 44.7949 28.9287C44.9988 27.9593 45.9173 27.1941 46.8355 26.4798C47.3968 26.0207 48.2641 25.3574 48.2641 25.0004C48.2641 24.6431 47.3968 23.9288 46.8355 23.521C45.9173 22.8067 44.9988 22.0924 44.7949 21.0721C44.591 20.0518 45.1522 18.9802 45.7643 17.9599C46.0704 17.3986 46.6317 16.4292 46.4786 16.1231C46.3256 15.8171 45.3052 15.511 44.591 15.3067C43.4685 15.0006 42.346 14.6433 41.7847 13.8273C41.2235 12.96 41.3256 11.7866 41.4787 10.6129C41.5295 9.94952 41.6826 8.827 41.4278 8.57226C41.1726 8.31708 40.0501 8.47012 39.3871 8.52137C38.2137 8.6744 37.04 8.77654 36.1727 8.2153C35.3054 7.65405 34.9993 6.48069 34.6933 5.40907C34.4894 4.6948 34.183 3.67446 33.8769 3.5214C33.5708 3.41926 32.6014 3.92961 32.0402 4.23567C31.0198 4.79691 29.9482 5.40905 28.9279 5.20515C27.9584 5.00122 27.1933 4.0827 26.479 3.16451C26.0199 2.60326 25.3565 1.73593 24.9996 1.73593C24.6423 1.73593 23.928 2.60324 23.5202 3.16451C22.8059 4.0827 22.0916 5.00125 21.0713 5.20515C20.051 5.40908 18.9793 4.84783 17.959 4.23567C17.3978 3.9296 16.4283 3.36836 16.1223 3.5214C15.8162 3.67443 15.5101 4.69478 15.3059 5.40907C14.9998 6.53152 14.6425 7.65407 13.8264 8.2153C12.9591 8.77654 11.7858 8.6744 10.6121 8.52137C9.94868 8.47047 8.82615 8.31744 8.57141 8.57226C8.31623 8.82743 8.46927 9.94991 8.52052 10.6129C8.67355 11.7863 8.77569 12.96 8.21445 13.8273C7.6532 14.6946 6.47984 15.0007 5.40822 15.3067C4.69395 15.5106 3.67361 15.8171 3.52055 16.1231C3.41841 16.4292 3.92876 17.3986 4.23482 17.9599C4.79607 18.9802 5.4082 20.0518 5.2043 21.0721C5.00038 22.0416 4.08185 22.8067 3.16366 23.521C2.60242 23.9801 1.73508 24.6435 1.73508 25.0004C1.73508 25.3578 2.60239 26.072 3.16366 26.4798C4.08185 27.1941 5.0004 27.9084 5.2043 28.9287C5.40823 29.9491 4.84699 31.0207 4.23482 32.041C3.92875 32.6023 3.36752 33.5717 3.52055 33.8777C3.67359 34.1838 4.69393 34.4899 5.40822 34.6942C6.53068 35.0002 7.65322 35.3575 8.21445 36.1736C8.77569 37.0409 8.67355 38.2142 8.52052 39.388C8.46963 40.0513 8.31659 41.1739 8.57141 41.4286C8.82659 41.6838 9.94906 41.5308 10.6121 41.4795C11.7854 41.3265 12.9592 41.2243 13.8264 41.7856C14.6937 42.3468 14.9998 43.5202 15.3059 44.5918C15.5098 45.3061 15.8162 46.3264 16.1223 46.4795C16.4283 46.6325 17.3978 46.0713 17.959 45.7652C18.8263 45.2043 19.7449 44.7449 20.6631 44.7449L20.6631 44.7448Z" fill="#F6A235"/>
<path d="M24.4388 12.908L17.449 27.3978H22.755L19.1836 39.1326L33.5715 21.7855H25.9696L31.8368 12.9081L24.4388 12.908Z" fill="#F6A235"/>
</svg>
