<svg width="35" height="36" viewBox="0 0 35 36" fill="none" xmlns="http://www.w3.org/2000/svg">
<g id="Instagram">
<path id="Bg" fill-rule="evenodd" clip-rule="evenodd" d="M0 18.3335C0 8.66851 7.83502 0.833496 17.5 0.833496C27.165 0.833496 35 8.66851 35 18.3335C35 27.9985 27.165 35.8335 17.5 35.8335C7.83502 35.8335 0 27.9985 0 18.3335Z" fill="#F6A235"/>
<path id="Path" fill-rule="evenodd" clip-rule="evenodd" d="M17.5009 9.00024C14.9661 9.00024 14.6479 9.01133 13.6524 9.05663C12.6588 9.10213 11.9805 9.25944 11.3871 9.49025C10.7732 9.72864 10.2525 10.0475 9.7337 10.5665C9.21453 11.0853 8.89564 11.606 8.65647 12.2197C8.42508 12.8133 8.26757 13.4918 8.22285 14.485C8.17832 15.4806 8.16666 15.7989 8.16666 18.3337C8.16666 20.8685 8.17793 21.1856 8.22305 22.1812C8.26874 23.1748 8.42605 23.853 8.65666 24.4465C8.89525 25.0604 9.21414 25.5811 9.73312 26.0999C10.2517 26.619 10.7724 26.9387 11.3859 27.1771C11.9798 27.4079 12.6582 27.5652 13.6516 27.6107C14.6472 27.656 14.9651 27.6671 17.4997 27.6671C20.0347 27.6671 20.3518 27.656 21.3474 27.6107C22.341 27.5652 23.02 27.4079 23.6139 27.1771C24.2275 26.9387 24.7475 26.619 25.2661 26.0999C25.7853 25.5811 26.1041 25.0604 26.3433 24.4467C26.5728 23.853 26.7303 23.1746 26.7769 22.1814C26.8217 21.1858 26.8333 20.8685 26.8333 18.3337C26.8333 15.7989 26.8217 15.4808 26.7769 14.4852C26.7303 13.4916 26.5728 12.8133 26.3433 12.2199C26.1041 11.606 25.7853 11.0853 25.2661 10.5665C24.7469 10.0473 24.2277 9.72845 23.6133 9.49025C23.0183 9.25944 22.3397 9.10213 21.346 9.05663C20.3505 9.01133 20.0335 9.00024 17.4979 9.00024H17.5009ZM16.6635 10.6822C16.912 10.6818 17.1893 10.6822 17.5008 10.6822C19.9929 10.6822 20.2882 10.6911 21.2723 10.7358C22.1823 10.7775 22.6762 10.9295 23.0052 11.0573C23.4408 11.2264 23.7513 11.4287 24.0778 11.7553C24.4045 12.082 24.6067 12.3931 24.7762 12.8287C24.904 13.1573 25.0562 13.6512 25.0977 14.5612C25.1424 15.5451 25.1521 15.8407 25.1521 18.3315C25.1521 20.8224 25.1424 21.1179 25.0977 22.1018C25.056 23.0118 24.904 23.5057 24.7762 23.8343C24.6071 24.2699 24.4045 24.58 24.0778 24.9065C23.7511 25.2332 23.441 25.4354 23.0052 25.6046C22.6766 25.7329 22.1823 25.8846 21.2723 25.9262C20.2884 25.9709 19.9929 25.9806 17.5008 25.9806C15.0086 25.9806 14.7132 25.9709 13.7293 25.9262C12.8193 25.8842 12.3254 25.7321 11.9962 25.6044C11.5607 25.4352 11.2496 25.233 10.9229 24.9063C10.5962 24.5797 10.394 24.2693 10.2244 23.8336C10.0967 23.505 9.94444 23.0111 9.90302 22.101C9.8583 21.1172 9.84936 20.8216 9.84936 18.3292C9.84936 15.8368 9.8583 15.5428 9.90302 14.5589C9.94464 13.6488 10.0967 13.155 10.2244 12.826C10.3936 12.3904 10.5962 12.0793 10.9229 11.7526C11.2496 11.4259 11.5607 11.2237 11.9962 11.0542C12.3252 10.9258 12.8193 10.7742 13.7293 10.7323C14.5904 10.6935 14.924 10.6818 16.6635 10.6798V10.6822ZM22.4829 12.2319C21.8646 12.2319 21.3629 12.733 21.3629 13.3515C21.3629 13.9699 21.8646 14.4716 22.4829 14.4716C23.1013 14.4716 23.6029 13.9699 23.6029 13.3515C23.6029 12.7332 23.1013 12.2319 22.4829 12.2319ZM17.5009 13.5405C14.8539 13.5405 12.7078 15.6866 12.7078 18.3336C12.7078 20.9806 14.8539 23.1258 17.5009 23.1258C20.1479 23.1258 22.2932 20.9806 22.2932 18.3336C22.2932 15.6866 20.1479 13.5405 17.5009 13.5405ZM17.5008 15.2225C19.219 15.2225 20.612 16.6153 20.612 18.3336C20.612 20.0518 19.219 21.4448 17.5008 21.4448C15.7825 21.4448 14.3897 20.0518 14.3897 18.3336C14.3897 16.6153 15.7825 15.2225 17.5008 15.2225Z" fill="white"/>
</g>
</svg>
