<svg width="8" height="14" viewBox="0 0 8 14" fill="none" xmlns="http://www.w3.org/2000/svg">
<path id="Right Arrow" d="M0.682757 13.0426L0.682778 13.0426C0.877416 13.2333 1.14096 13.3401 1.41534 13.3401C1.68973 13.3401 1.95327 13.2333 2.14791 13.0426L2.14792 13.0426L7.45974 7.83623L7.45975 7.83622C7.6544 7.64538 7.76412 7.38616 7.76412 7.11545C7.76412 6.84473 7.6544 6.58551 7.45975 6.39467L7.45974 6.39466L2.14792 1.1883L2.14793 1.18829L2.14669 1.18712C1.95096 1.00183 1.68921 0.899621 1.41789 0.901933C1.14657 0.904243 0.886645 1.01089 0.694205 1.19951C0.501701 1.3882 0.392143 1.64385 0.389769 1.91153C0.387396 2.17922 0.492407 2.43672 0.681558 2.62868L0.682767 2.62988L5.2592 7.11545L0.682767 11.601L0.682756 11.601C0.488109 11.7919 0.378393 12.0511 0.378393 12.3218C0.378393 12.5925 0.488109 12.8517 0.682757 13.0426Z" fill="#F6A235" stroke="#F6A235" stroke-width="0.196339"/>
</svg>
