<svg width="28" height="27" viewBox="0 0 28 27" fill="none" xmlns="http://www.w3.org/2000/svg">
<path d="M26.8973 23.8355L21.8923 19.03C23.5071 17.0489 24.3833 14.6025 24.3801 12.084C24.3801 9.84111 23.6894 7.64857 22.3954 5.78366C21.1013 3.91874 19.2621 2.46522 17.1102 1.60689C14.9583 0.748566 12.5905 0.523989 10.306 0.961559C8.02161 1.39913 5.92323 2.4792 4.27625 4.06518C2.62928 5.65115 1.50767 7.67182 1.05327 9.87163C0.598868 12.0714 0.832083 14.3516 1.72342 16.4238C2.61476 18.496 4.12419 20.2671 6.06083 21.5132C7.99747 22.7593 10.2743 23.4244 12.6035 23.4244C15.2189 23.4275 17.7594 22.5838 19.8167 21.0287L24.807 25.8484C24.9438 25.9813 25.1066 26.0867 25.286 26.1587C25.4654 26.2307 25.6578 26.2677 25.8521 26.2677C26.0465 26.2677 26.2389 26.2307 26.4183 26.1587C26.5976 26.0867 26.7604 25.9813 26.8973 25.8484C27.0353 25.7166 27.1448 25.5598 27.2195 25.3871C27.2943 25.2144 27.3327 25.0291 27.3327 24.8419C27.3327 24.6548 27.2943 24.4695 27.2195 24.2968C27.1448 24.124 27.0353 23.9673 26.8973 23.8355ZM3.77112 12.084C3.77112 10.4018 4.28913 8.75743 5.25965 7.35875C6.23017 5.96006 7.6096 4.86992 9.22351 4.22618C10.8374 3.58243 12.6133 3.414 14.3266 3.74218C16.04 4.07035 17.6137 4.8804 18.849 6.06989C20.0842 7.25937 20.9254 8.77487 21.2662 10.4247C21.607 12.0746 21.4321 13.7847 20.7636 15.3389C20.0951 16.893 18.963 18.2213 17.5105 19.1559C16.0581 20.0905 14.3504 20.5893 12.6035 20.5893C10.261 20.5893 8.01447 19.6932 6.35807 18.0982C4.70167 16.5031 3.77112 14.3398 3.77112 12.084Z" fill="white"/>
</svg>
