<svg width="35" height="36" viewBox="0 0 35 36" fill="none" xmlns="http://www.w3.org/2000/svg">
<g id="Twitter">
<path id="Bg" fill-rule="evenodd" clip-rule="evenodd" d="M0 18.3335C0 8.66851 7.83502 0.833496 17.5 0.833496C27.165 0.833496 35 8.66851 35 18.3335C35 27.9985 27.165 35.8335 17.5 35.8335C7.83502 35.8335 0 27.9985 0 18.3335Z" fill="#F6A235"/>
<path id="Path" fill-rule="evenodd" clip-rule="evenodd" d="M16.9759 15.0577L17.0126 15.6633L16.4006 15.5891C14.1727 15.3049 12.2264 14.341 10.5739 12.7221L9.76599 11.9188L9.5579 12.512C9.11723 13.8343 9.39877 15.2307 10.3168 16.1699C10.8065 16.689 10.6963 16.7631 9.85168 16.4542C9.5579 16.3553 9.30084 16.2812 9.27636 16.3182C9.19067 16.4047 9.48445 17.5293 9.71703 17.9742C10.0353 18.5921 10.6841 19.1976 11.394 19.556L11.9938 19.8402L11.2839 19.8526C10.5984 19.8526 10.5739 19.865 10.6473 20.1245C10.8922 20.9277 11.8592 21.7804 12.9364 22.1512L13.6953 22.4107L13.0343 22.8061C12.055 23.3746 10.9044 23.6959 9.75375 23.7206C9.20291 23.733 8.75 23.7824 8.75 23.8195C8.75 23.9431 10.2434 24.6351 11.1125 24.907C13.7198 25.7103 16.8167 25.3642 19.1425 23.9925C20.795 23.0162 22.4476 21.076 23.2187 19.1976C23.6349 18.1966 24.0511 16.3677 24.0511 15.4902C24.0511 14.9218 24.0878 14.8476 24.7733 14.1679C25.1773 13.7725 25.5567 13.34 25.6302 13.2164C25.7526 12.9816 25.7404 12.9816 25.1161 13.1917C24.0756 13.5624 23.9287 13.513 24.4428 12.9569C24.8223 12.5614 25.2752 11.8446 25.2752 11.6346C25.2752 11.5975 25.0916 11.6593 24.8835 11.7705C24.6632 11.8941 24.1735 12.0794 23.8063 12.1907L23.1453 12.4008L22.5455 11.9929C22.215 11.7705 21.7498 11.5233 21.505 11.4492C20.8807 11.2762 19.9259 11.3009 19.3628 11.4986C17.8327 12.0547 16.8657 13.4883 16.9759 15.0577Z" fill="white"/>
</g>
</svg>
