<svg width="53" height="55" viewBox="0 0 53 55" fill="none" xmlns="http://www.w3.org/2000/svg">
<path d="M27.0868 5.15401V2.5291C27.0868 1.82892 26.5618 1.30394 25.8619 1.30424C25.1618 1.30424 24.6368 1.82922 24.6371 2.5291V5.15401C24.6371 5.85418 25.1621 6.37917 25.8619 6.37887C26.5618 6.37916 27.0868 5.85419 27.0868 5.15401Z" fill="#F6A235"/>
<path d="M33.5611 14.0793C33.5611 14.7795 34.0861 15.3045 34.786 15.3042L37.4109 15.3042C38.1111 15.3042 38.6361 14.7792 38.6358 14.0793C38.6358 13.3792 38.1108 12.8542 37.4109 12.8545L34.786 12.8545C34.0861 12.8542 33.5611 13.3792 33.5611 14.0793Z" fill="#F6A235"/>
<path d="M16.9366 15.3042C17.6368 15.3042 18.1618 14.7792 18.1615 14.0793C18.1615 13.3792 17.6365 12.8542 16.9366 12.8545L14.3117 12.8545C13.6115 12.8545 13.0865 13.3795 13.0868 14.0793C13.0868 14.7795 13.6118 15.3045 14.3117 15.3042L16.9366 15.3042Z" fill="#F6A235"/>
<path d="M31.2865 8.65486C31.8115 9.17984 32.5117 9.17984 33.0366 8.65486L34.8741 6.81742C35.3991 6.29244 35.3991 5.59226 34.8741 5.06728C34.3491 4.5423 33.6489 4.5423 33.1239 5.06728L31.2865 6.90472C30.7615 7.4297 30.7615 8.12987 31.2865 8.65486Z" fill="#F6A235"/>
<path d="M20.4368 8.65422C20.9618 8.12924 20.9618 7.42907 20.4368 6.90408L18.5996 5.06695C18.0747 4.54196 17.3745 4.54196 16.8495 5.06695C16.3245 5.59193 16.3245 6.2921 16.8495 6.81709L18.6869 8.65452C19.1243 9.09191 19.9118 9.17921 20.4368 8.65422V8.65422Z" fill="#F6A235"/>
<path d="M50.7986 16.9668L32.074 16.9661C32.5113 16.0037 32.6862 15.1286 32.6862 14.0787C32.6862 10.2286 29.6239 7.16629 25.7739 7.16629C23.8491 7.16629 22.1863 7.95376 20.9614 9.17862C19.7366 10.4035 18.9491 12.2409 18.9491 13.9911C18.9491 15.041 19.2116 16.0037 19.5614 16.8785L3.28693 16.8785C2.58675 16.8785 2.06177 17.4034 2.06207 18.1033L2.14982 51.2649C2.14982 51.9651 2.6748 52.4901 3.37468 52.4898C16.8496 52.4904 26.2991 52.4906 50.7986 52.4898C51.4987 52.4898 52.0237 51.9648 52.0234 51.2649L52.0234 18.1911C52.0234 17.4909 51.4984 16.9659 50.7986 16.9662V16.9668ZM49.5739 33.416L39.8614 33.5036L39.8614 27.904H49.6609L49.5739 33.416ZM49.5736 41.6408L39.7741 41.6408L39.7741 36.0412L49.5736 36.0412L49.5736 41.6408ZM28.3124 49.9526V44.0026L37.4123 44.0026L37.4123 49.9526H28.3124ZM16.8501 50.0399L16.8501 44.0899L25.7748 44.0899L25.8621 49.9526L16.8501 50.0399ZM4.51329 35.9536L14.3128 35.9536L14.3128 41.5532L4.51329 41.5532V35.9536ZM4.60089 27.8161L14.4004 27.8161L14.3131 33.5036L4.51359 33.5036L4.60089 27.8161ZM25.8621 19.5043L25.8624 25.454L16.9377 25.454V19.504L25.8621 19.5043ZM16.7626 35.9535L25.6873 35.9535L25.6873 41.5531L16.7629 41.5534L16.7626 35.9535ZM16.8502 33.4161L16.8502 27.8165L25.7749 27.8165L25.8625 33.5037L16.8502 33.4161ZM28.3127 41.5535L28.3127 35.9539H37.4126L37.412 41.5535L28.3127 41.5535ZM37.3245 33.4164L28.3122 33.504L28.3122 27.9044L37.4121 27.9044L37.3245 33.4164ZM28.3997 25.3664V19.4164L37.4996 19.4164L37.4996 25.3664H28.3997ZM21.4002 14.167C21.4002 11.7173 23.4128 9.70465 25.8625 9.70465C28.3122 9.70465 30.3249 11.7173 30.3249 14.167C30.3249 15.217 29.9751 16.2669 29.2749 16.9671H22.6253C21.7503 16.092 21.4002 15.217 21.4002 14.167V14.167ZM4.60074 19.4168L14.4002 19.4168L14.4002 25.3668L4.60074 25.3668L4.60074 19.4168ZM4.60073 44.091L14.4002 44.091L14.4002 50.041L4.60073 50.041L4.60073 44.091ZM49.5737 50.0413H39.7742V44.0913H49.5737V50.0413ZM49.5737 25.3671L39.7742 25.3671L39.7742 19.4171L49.5737 19.4171V25.3671Z" fill="#F6A235"/>
</svg>
