<svg width="14" height="16" viewBox="0 0 14 16" fill="none" xmlns="http://www.w3.org/2000/svg">
<path id="User" d="M14 14.0913C14 14.2007 13.9385 14.3009 13.8154 14.3921C13.6924 14.4832 13.5033 14.5584 13.248 14.6177C12.9928 14.6769 12.7308 14.7316 12.4619 14.7817C12.193 14.8319 11.849 14.8706 11.4297 14.8979C11.0104 14.9253 10.6458 14.9458 10.3359 14.9595C10.026 14.9731 9.62728 14.9845 9.13965 14.9937C8.65202 15.0028 8.28288 15.0073 8.03223 15.0073H5.96777L4.86035 14.9937L3.66406 14.9595L2.57031 14.8979L1.53809 14.7817L0.751953 14.6177L0.18457 14.3921L0 14.0913C0.0182292 13.2892 0.519531 12.5806 1.50391 11.9653C2.48828 11.3501 3.73698 10.9422 5.25 10.7417V10.2905C4.77604 10.0809 4.36589 9.78467 4.01953 9.40186C3.67318 9.01904 3.39974 8.57015 3.19922 8.05518C2.9987 7.5402 2.85286 6.98877 2.76172 6.40088C2.67057 5.81299 2.625 5.17725 2.625 4.49365C2.625 3.91032 2.73893 3.39079 2.9668 2.93506C3.19466 2.47933 3.50911 2.11247 3.91016 1.83447C4.3112 1.55648 4.77148 1.34684 5.29102 1.20557C5.81055 1.06429 6.38021 0.993652 7 0.993652C7.61979 0.993652 8.18945 1.06429 8.70898 1.20557C9.22852 1.34684 9.6888 1.55648 10.0898 1.83447C10.4909 2.11247 10.8053 2.47933 11.0332 2.93506C11.2611 3.39079 11.375 3.91032 11.375 4.49365C11.375 7.68376 10.5 9.62516 8.75 10.3179V10.7417C10.263 10.9422 11.5117 11.3501 12.4961 11.9653C13.4805 12.5806 13.9818 13.2892 14 14.0913Z" fill="#F6A235"/>
</svg>
