<svg width="35" height="36" viewBox="0 0 35 36" fill="none" xmlns="http://www.w3.org/2000/svg">
<g id="Youtube">
<path id="Bg" fill-rule="evenodd" clip-rule="evenodd" d="M0 18.3335C0 8.66851 7.83502 0.833496 17.5 0.833496C27.165 0.833496 35 8.66851 35 18.3335C35 27.9985 27.165 35.8335 17.5 35.8335C7.83502 35.8335 0 27.9985 0 18.3335Z" fill="#F6A235"/>
<path id="Path" fill-rule="evenodd" clip-rule="evenodd" d="M24.7928 12.3173C25.596 12.5377 26.2286 13.1871 26.4432 14.0118C26.8333 15.5065 26.8333 18.6251 26.8333 18.6251C26.8333 18.6251 26.8333 21.7436 26.4432 23.2384C26.2286 24.0631 25.596 24.7125 24.7928 24.933C23.3373 25.3334 17.5 25.3334 17.5 25.3334C17.5 25.3334 11.6627 25.3334 10.2071 24.933C9.40387 24.7125 8.77132 24.0631 8.55666 23.2384C8.16667 21.7436 8.16667 18.6251 8.16667 18.6251C8.16667 18.6251 8.16667 15.5065 8.55666 14.0118C8.77132 13.1871 9.40387 12.5377 10.2071 12.3173C11.6627 11.9167 17.5 11.9167 17.5 11.9167C17.5 11.9167 23.3373 11.9167 24.7928 12.3173ZM15.75 16V21.8334L20.4167 18.9168L15.75 16Z" fill="white"/>
</g>
</svg>
